<svg id="layer" xmlns="http://www.w3.org/2000/svg" width="1152" height="1152" viewBox="0 0 1152 1152">
  <defs>
    <style>
      .cls-1, .cls-2, .cls-4, .cls-5 {
        fill: #61b672;
      }

      .cls-1, .cls-2 {
        stroke: #61b672;
      }

      .cls-1, .cls-2, .cls-3 {
        stroke-linejoin: round;
        stroke-width: 9px;
      }

      .cls-1, .cls-2, .cls-3, .cls-5, .cls-6, .cls-7, .cls-8, .cls-9 {
        fill-rule: evenodd;
      }

      .cls-1 {
        opacity: 0.55;
      }

      .cls-3, .cls-6 {
        fill: #fff;
      }

      .cls-3 {
        stroke: #2b9440;
      }

      .cls-7 {
        fill: #a8d7b2;
      }

      .cls-8 {
        fill: #d7f9de;
        opacity: 0.85;
      }

      .cls-9 {
        fill: #bdeac7;
      }
    </style>
  </defs>
  <path id="Rounded_Rectangle_1_copy_2" data-name="Rounded Rectangle 1 copy 2" class="cls-1" d="M633.317,449.877L1091.33,723.971a5.868,5.868,0,0,1-.04,8.311L633.053,998.314a5.877,5.877,0,0,1-8.312-.039L151.055,730.058a5.877,5.877,0,0,1,.039-8.311L625.006,449.838A5.877,5.877,0,0,1,633.317,449.877Z"/>
  <path id="Rounded_Rectangle_1_copy" data-name="Rounded Rectangle 1 copy" class="cls-2" d="M633.317,261.813L1091.33,535.907a5.868,5.868,0,0,1-.04,8.311L633.053,810.25a5.878,5.878,0,0,1-8.312-.039L151.055,541.994a5.877,5.877,0,0,1,.039-8.311L625.006,261.774A5.877,5.877,0,0,1,633.317,261.813Z"/>
  <path id="Rounded_Rectangle_1" data-name="Rounded Rectangle 1" class="cls-3" d="M633.317,109.011L1093.29,349.8a5.878,5.878,0,0,1-.04,8.312l-460.2,273.868a5.878,5.878,0,0,1-8.312-.039L151.055,355.889a5.877,5.877,0,0,1,.039-8.311L625.006,108.972A5.877,5.877,0,0,1,633.317,109.011Z"/>
  <g id="browser">
    <circle class="cls-4" cx="244.25" cy="351.219" r="14.688"/>
    <path id="Ellipse_1_copy" data-name="Ellipse 1 copy" class="cls-5" d="M283.468,316.987a14.693,14.693,0,1,1-14.692,14.692A14.692,14.692,0,0,1,283.468,316.987Z"/>
    <path id="Ellipse_1_copy_2" data-name="Ellipse 1 copy 2" class="cls-5" d="M322.648,295.438a14.693,14.693,0,1,1-14.692,14.692A14.692,14.692,0,0,1,322.648,295.438Z"/>
  </g>
  <g id="refresh">
    <path class="cls-5" d="M624.665,271.47c62.534-18.862,119.125,7.3,118.9,59.968-0.225,53.538-58.257,104.857-119.635,114.3-58.357,8.98-99.007-21.065-98.824-64.542C525.29,338.242,565.635,289.276,624.665,271.47Z"/>
    <path id="Ellipse_2_copy" data-name="Ellipse 2 copy" class="cls-6" d="M624.842,281.115c55.147-16.181,104.969,7.034,104.772,53.692-0.2,47.346-51.19,92.763-105.425,101.54-52.346,8.471-89.029-18.336-88.866-57.313C535.486,340.3,572.171,296.569,624.842,281.115Z"/>
    <path class="cls-6" d="M732.922,217.555L645.143,336.347,595,320.407l80.354-114.576Z"/>
    <path class="cls-5" d="M565.171,270.183l66.753-3.659L628.587,276,562.2,279.113Z"/>
    <path id="Rectangle_3_copy" data-name="Rectangle 3 copy" class="cls-5" d="M601.887,330.281l18.888-61.5,10.627-.928-19.227,62.065Z"/>
  </g>
  <path id="Rounded_Rectangle_5" data-name="Rounded Rectangle 5" class="cls-7" d="M92.548,2.727H382.357a3,3,0,0,1,3,3v13.59a3,3,0,0,1-3,3H92.548a3,3,0,0,1-3-3V5.727A3,3,0,0,1,92.548,2.727Z"/>
  <path id="Rounded_Rectangle_5_copy" data-name="Rounded Rectangle 5 copy" class="cls-7" d="M6.352,2.727h52.77a3,3,0,0,1,3,3v13.59a3,3,0,0,1-3,3H6.352a3,3,0,0,1-3-3V5.727A3,3,0,0,1,6.352,2.727Z"/>
  <path id="Rounded_Rectangle_5_copy_2" data-name="Rounded Rectangle 5 copy 2" class="cls-8" d="M229.678,63.456H460.717a3,3,0,0,1,3,3v13.59a3,3,0,0,1-3,3H229.678a3,3,0,0,1-3-3V66.456A3,3,0,0,1,229.678,63.456Z"/>
  <path id="Rounded_Rectangle_5_copy_3" data-name="Rounded Rectangle 5 copy 3" class="cls-9" d="M114.1,124.185H286.366a3,3,0,0,1,3,3v13.59a3,3,0,0,1-3,3H114.1a3,3,0,0,1-3-3v-13.59A3,3,0,0,1,114.1,124.185Z"/>
  <path id="Rounded_Rectangle_2" data-name="Rounded Rectangle 2" class="cls-5" d="M1015.33,870.605l-48.5,265.955a9.8,9.8,0,1,1-19.272-3.52l48.5-265.95A9.795,9.795,0,1,1,1015.33,870.605Z"/>
  <path id="Rounded_Rectangle_3" data-name="Rounded Rectangle 3" class="cls-5" d="M1059.54,866.511l83.32,28.785a9.794,9.794,0,0,1-6.39,18.516l-83.33-28.785A9.8,9.8,0,1,1,1059.54,866.511Z"/>
  <path id="Rounded_Rectangle_3_copy" data-name="Rounded Rectangle 3 copy" class="cls-5" d="M823.444,1098.16l82.147,31.99a9.793,9.793,0,1,1-7.108,18.25l-82.147-31.98A9.8,9.8,0,0,1,823.444,1098.16Z"/>
  <path id="Rounded_Rectangle_4" data-name="Rounded Rectangle 4" class="cls-5" d="M1147.98,912.059L1054.43,1061.5a9.792,9.792,0,1,1-16.6-10.39l93.55-149.446A9.793,9.793,0,1,1,1147.98,912.059Z"/>
  <path id="Rounded_Rectangle_4_copy" data-name="Rounded Rectangle 4 copy" class="cls-5" d="M920.738,961.034L827.186,1110.48a9.8,9.8,0,0,1-16.605-10.4l93.552-149.441A9.8,9.8,0,1,1,920.738,961.034Z"/>
</svg>
